<svg width="21" height="20" viewBox="0 0 21 20" fill="none" xmlns="http://www.w3.org/2000/svg">
<path d="M1.8493 9.58158C1.8493 5.01033 5.75624 1.35928 10.5 1.35928C15.2406 1.35928 19.1472 5.0107 19.1472 9.58519C19.1472 14.1599 15.2439 17.8075 10.5 17.8075C8.78986 17.8075 7.19613 17.3302 5.85429 16.5147L3.59379 17.6802C3.59337 17.6804 3.59295 17.6806 3.59253 17.6809C3.10964 17.931 2.60312 17.7771 2.30312 17.4671C2.00484 17.1589 1.87088 16.6609 2.10006 16.1887L2.09983 16.1891L2.68487 16.4724L2.10015 16.1885L1.8493 9.58158ZM1.8493 9.58158C1.8493 11.1931 2.34158 12.692 3.18042 13.9572L1.8493 9.58158Z" stroke="#898989" stroke-width="1.3" stroke-linecap="round" stroke-linejoin="round"/>
<path d="M7.16666 6.66675H14.1695" stroke="#898989" stroke-width="1.3" stroke-linecap="round" stroke-linejoin="round"/>
<path d="M6.9986 9.58154H14.0014" stroke="#898989" stroke-width="1.3" stroke-linecap="round" stroke-linejoin="round"/>
<path d="M6.9986 12.8269H10.1499" stroke="#898989" stroke-width="1.3" stroke-linecap="round" stroke-linejoin="round"/>
</svg>
