<svg width="41" height="40" viewBox="0 0 41 40" fill="none" xmlns="http://www.w3.org/2000/svg">
<g clip-path="url(#clip0_1780_4637)">
<path fill-rule="evenodd" clip-rule="evenodd" d="M32.4685 10.434C33.7561 10.7829 34.7701 11.8111 35.1144 13.1167C35.7398 15.4832 35.7398 20.4206 35.7398 20.4206C35.7398 20.4206 35.7398 25.3578 35.1144 27.7246C34.7701 29.0299 33.7561 30.0581 32.4685 30.4072C30.1346 31.0412 20.7759 31.0412 20.7759 31.0412C20.7759 31.0412 11.4174 31.0412 9.08358 30.4072C7.79589 30.0581 6.78175 29.03 6.43767 27.7245C5.81226 25.3579 5.81226 20.4206 5.81226 20.4206C5.81226 20.4206 5.81226 15.4832 6.43767 13.1167C6.78175 11.8111 7.79589 10.7829 9.08358 10.434C11.4174 9.7998 20.7759 9.7998 20.7759 9.7998C20.7759 9.7998 30.1346 9.7998 32.4685 10.434ZM25.5373 20.4207L17.7152 24.9033V15.9378L25.5373 20.4207Z" fill="black"/>
</g>
<defs>
<clipPath id="clip0_1780_4637">
<rect width="30" height="34" fill="white" transform="translate(6 3)"/>
</clipPath>
</defs>
</svg>
