<svg width="41" height="40" viewBox="0 0 41 40" fill="none" xmlns="http://www.w3.org/2000/svg">
<g clip-path="url(#clip0_4376_10603)">
<path d="M35.9302 16.6092L35.9305 16.6091L35.9212 16.5322C35.9211 16.5309 35.921 16.5299 35.9208 16.5286C35.9207 16.5275 35.9206 16.5265 35.9204 16.5253L35.8856 16.2362C35.8786 16.1781 35.8706 16.112 35.8615 16.0365L35.8542 15.9764L35.8393 15.9782C35.4734 13.897 34.4682 11.922 32.9112 10.2355C31.3616 8.55722 29.3483 7.23209 27.0891 6.4034C25.1534 5.69338 23.0995 5.33331 20.9847 5.33331C18.1297 5.33331 15.3569 6.00478 12.9662 7.27509C8.35616 9.72453 5.63729 14.2268 6.03914 18.7453C6.24715 21.0835 7.16315 23.3092 8.6882 25.1819C10.1236 26.9446 12.0654 28.3671 14.3035 29.2955C15.6796 29.8663 17.0403 30.1354 18.4809 30.4202L18.6496 30.4535C19.0463 30.532 19.1529 30.6399 19.1804 30.6826C19.2313 30.7619 19.2047 30.9182 19.1843 31.0043C19.1655 31.0837 19.146 31.1629 19.1266 31.2423C18.9719 31.8731 18.812 32.5254 18.9376 33.2446C19.0821 34.0714 19.5984 34.5456 20.3541 34.5457C20.3542 34.5457 20.3542 34.5457 20.3543 34.5457C21.1672 34.5457 22.0924 34.0004 22.7046 33.6396L22.7864 33.5916C24.2469 32.7338 25.6228 31.7663 26.6583 31.0193C28.9242 29.3845 31.4925 27.5314 33.418 25.1342C35.3569 22.7197 36.2703 19.6171 35.9302 16.6092ZM15.3424 21.1836H12.7543C12.3631 21.1836 12.0461 20.8665 12.0461 20.4754V15.0429C12.0461 14.6518 12.3631 14.3347 12.7543 14.3347C13.1454 14.3347 13.4625 14.6518 13.4625 15.0429V19.7672H15.3423C15.7334 19.7672 16.0505 20.0842 16.0505 20.4754C16.0506 20.8665 15.7335 21.1836 15.3424 21.1836ZM18.0424 20.4561C18.0424 20.8473 17.7253 21.1643 17.3342 21.1643C16.943 21.1643 16.626 20.8473 16.626 20.4561V15.0237C16.626 14.6325 16.943 14.3155 17.3342 14.3155C17.7253 14.3155 18.0424 14.6325 18.0424 15.0237V20.4561ZM24.4438 20.4561C24.4438 20.763 24.2463 21.0349 23.9544 21.1297C23.8823 21.1531 23.8086 21.1644 23.7358 21.1644C23.5133 21.1644 23.2984 21.0593 23.1625 20.8722L20.6123 17.3599V20.4562C20.6123 20.8474 20.2952 21.1644 19.9041 21.1644C19.513 21.1644 19.1959 20.8474 19.1959 20.4562V15.1792C19.1959 14.8723 19.3935 14.6004 19.6854 14.5056C19.9774 14.4109 20.297 14.5147 20.4772 14.763L23.0275 18.2754V15.0237C23.0275 14.6325 23.3445 14.3155 23.7357 14.3155C24.1268 14.3155 24.4438 14.6325 24.4438 15.0237V20.4561ZM29.6043 21.0528H26.0992C25.7081 21.0528 25.391 20.7358 25.391 20.3446V17.6285V14.9122C25.391 14.521 25.7081 14.204 26.0992 14.204H29.4955C29.8866 14.204 30.2037 14.521 30.2037 14.9122C30.2037 15.3033 29.8866 15.6204 29.4955 15.6204H26.8074V16.9203H28.9888C29.38 16.9203 29.697 17.2374 29.697 17.6285C29.697 18.0196 29.38 18.3367 28.9888 18.3367H26.8074V19.6364H29.6043C29.9954 19.6364 30.3125 19.9535 30.3125 20.3446C30.3125 20.7358 29.9954 21.0528 29.6043 21.0528Z" fill="black"/>
</g>
<defs>
<clipPath id="clip0_4376_10603">
<rect width="30" height="30" fill="white" transform="translate(6 5)"/>
</clipPath>
</defs>
</svg>
