<svg width="82" height="24" viewBox="0 0 82 24" fill="none" xmlns="http://www.w3.org/2000/svg">
<mask id="path-1-outside-1_2721_16335" maskUnits="userSpaceOnUse" x="1" y="3" width="22" height="18" fill="black">
<rect fill="white" x="1" y="3" width="22" height="18"/>
<path fill-rule="evenodd" clip-rule="evenodd" d="M2 6.5C2 5.11929 3.11929 4 4.5 4H19.5C20.8807 4 22 5.11929 22 6.5V17.5C22 18.8807 20.8807 20 19.5 20H4.5C3.11929 20 2 18.8807 2 17.5V6.5ZM4.5 5C3.67157 5 3 5.67157 3 6.5V17.5C3 18.3284 3.67157 19 4.5 19H19.5C20.3284 19 21 18.3284 21 17.5V6.5C21 5.67157 20.3284 5 19.5 5H4.5Z"/>
<path fill-rule="evenodd" clip-rule="evenodd" d="M11.5 7C10.6716 7 10 7.67157 10 8.5C10 9.32843 10.6716 10 11.5 10C12.3284 10 13 9.32843 13 8.5C13 7.67157 12.3284 7 11.5 7ZM9 8.5C9 7.11929 10.1193 6 11.5 6C12.8807 6 14 7.11929 14 8.5C14 9.88071 12.8807 11 11.5 11C10.1193 11 9 9.88071 9 8.5Z"/>
<path fill-rule="evenodd" clip-rule="evenodd" d="M8.30928 10.8582L12.8426 14.3841L15.8137 12.4033L21.5885 16.0782L21.0517 16.9218L15.8264 13.5967L12.7976 15.6159L8.33091 12.1418L2.64018 16.8841L2 16.1159L8.30928 10.8582Z"/>
</mask>
<path fill-rule="evenodd" clip-rule="evenodd" d="M2 6.5C2 5.11929 3.11929 4 4.5 4H19.5C20.8807 4 22 5.11929 22 6.5V17.5C22 18.8807 20.8807 20 19.5 20H4.5C3.11929 20 2 18.8807 2 17.5V6.5ZM4.5 5C3.67157 5 3 5.67157 3 6.5V17.5C3 18.3284 3.67157 19 4.5 19H19.5C20.3284 19 21 18.3284 21 17.5V6.5C21 5.67157 20.3284 5 19.5 5H4.5Z" fill="#898989"/>
<path fill-rule="evenodd" clip-rule="evenodd" d="M11.5 7C10.6716 7 10 7.67157 10 8.5C10 9.32843 10.6716 10 11.5 10C12.3284 10 13 9.32843 13 8.5C13 7.67157 12.3284 7 11.5 7ZM9 8.5C9 7.11929 10.1193 6 11.5 6C12.8807 6 14 7.11929 14 8.5C14 9.88071 12.8807 11 11.5 11C10.1193 11 9 9.88071 9 8.5Z" fill="#898989"/>
<path fill-rule="evenodd" clip-rule="evenodd" d="M8.30928 10.8582L12.8426 14.3841L15.8137 12.4033L21.5885 16.0782L21.0517 16.9218L15.8264 13.5967L12.7976 15.6159L8.33091 12.1418L2.64018 16.8841L2 16.1159L8.30928 10.8582Z" fill="#898989"/>
<path d="M8.30928 10.8582L8.61625 10.4635L8.29846 10.2163L7.98919 10.474L8.30928 10.8582ZM12.8426 14.3841L12.5356 14.7787L12.8201 15L13.1199 14.8001L12.8426 14.3841ZM15.8137 12.4033L16.0822 11.9815L15.8074 11.8066L15.5364 11.9873L15.8137 12.4033ZM21.5885 16.0782L22.0104 16.3466L22.2788 15.9248L21.857 15.6563L21.5885 16.0782ZM21.0517 16.9218L20.7832 17.3437L21.205 17.6121L21.4735 17.1903L21.0517 16.9218ZM15.8264 13.5967L16.0949 13.1749L15.8201 13L15.5491 13.1807L15.8264 13.5967ZM12.7976 15.6159L12.4906 16.0106L12.7751 16.2319L13.0749 16.0319L12.7976 15.6159ZM8.33091 12.1418L8.63788 11.7472L8.32009 11.5L8.01081 11.7577L8.33091 12.1418ZM2.64018 16.8841L2.25607 17.2042L2.57617 17.5883L2.96028 17.2682L2.64018 16.8841ZM2 16.1159L1.67991 15.7318L1.2958 16.0519L1.61589 16.436L2 16.1159ZM4.5 3.5C2.84315 3.5 1.5 4.84315 1.5 6.5H2.5C2.5 5.39543 3.39543 4.5 4.5 4.5V3.5ZM19.5 3.5H4.5V4.5H19.5V3.5ZM22.5 6.5C22.5 4.84315 21.1569 3.5 19.5 3.5V4.5C20.6046 4.5 21.5 5.39543 21.5 6.5H22.5ZM22.5 17.5V6.5H21.5V17.5H22.5ZM19.5 20.5C21.1569 20.5 22.5 19.1569 22.5 17.5H21.5C21.5 18.6046 20.6046 19.5 19.5 19.5V20.5ZM4.5 20.5H19.5V19.5H4.5V20.5ZM1.5 17.5C1.5 19.1569 2.84315 20.5 4.5 20.5V19.5C3.39543 19.5 2.5 18.6046 2.5 17.5H1.5ZM1.5 6.5V17.5H2.5V6.5H1.5ZM3.5 6.5C3.5 5.94772 3.94772 5.5 4.5 5.5V4.5C3.39543 4.5 2.5 5.39543 2.5 6.5H3.5ZM3.5 17.5V6.5H2.5V17.5H3.5ZM4.5 18.5C3.94772 18.5 3.5 18.0523 3.5 17.5H2.5C2.5 18.6046 3.39543 19.5 4.5 19.5V18.5ZM19.5 18.5H4.5V19.5H19.5V18.5ZM20.5 17.5C20.5 18.0523 20.0523 18.5 19.5 18.5V19.5C20.6046 19.5 21.5 18.6046 21.5 17.5H20.5ZM20.5 6.5V17.5H21.5V6.5H20.5ZM19.5 5.5C20.0523 5.5 20.5 5.94772 20.5 6.5H21.5C21.5 5.39543 20.6046 4.5 19.5 4.5V5.5ZM4.5 5.5H19.5V4.5H4.5V5.5ZM10.5 8.5C10.5 7.94772 10.9477 7.5 11.5 7.5V6.5C10.3954 6.5 9.5 7.39543 9.5 8.5H10.5ZM11.5 9.5C10.9477 9.5 10.5 9.05228 10.5 8.5H9.5C9.5 9.60457 10.3954 10.5 11.5 10.5V9.5ZM12.5 8.5C12.5 9.05228 12.0523 9.5 11.5 9.5V10.5C12.6046 10.5 13.5 9.60457 13.5 8.5H12.5ZM11.5 7.5C12.0523 7.5 12.5 7.94772 12.5 8.5H13.5C13.5 7.39543 12.6046 6.5 11.5 6.5V7.5ZM11.5 5.5C9.84315 5.5 8.5 6.84315 8.5 8.5H9.5C9.5 7.39543 10.3954 6.5 11.5 6.5V5.5ZM14.5 8.5C14.5 6.84315 13.1569 5.5 11.5 5.5V6.5C12.6046 6.5 13.5 7.39543 13.5 8.5H14.5ZM11.5 11.5C13.1569 11.5 14.5 10.1569 14.5 8.5H13.5C13.5 9.60457 12.6046 10.5 11.5 10.5V11.5ZM8.5 8.5C8.5 10.1569 9.84315 11.5 11.5 11.5V10.5C10.3954 10.5 9.5 9.60457 9.5 8.5H8.5ZM21.4735 17.1903L22.0104 16.3466L21.1667 15.8097L20.6298 16.6534L21.4735 17.1903ZM15.558 14.0185L20.7832 17.3437L21.3201 16.5L16.0949 13.1749L15.558 14.0185ZM2.96028 17.2682L8.651 12.5259L8.01081 11.7577L2.32009 16.5L2.96028 17.2682ZM1.61589 16.436L2.25607 17.2042L3.02429 16.564L2.38411 15.7958L1.61589 16.436ZM13.1496 13.9894L8.61625 10.4635L8.00231 11.2528L12.5356 14.7787L13.1496 13.9894ZM15.5364 11.9873L12.5652 13.968L13.1199 14.8001L16.0911 12.8193L15.5364 11.9873ZM21.857 15.6563L16.0822 11.9815L15.5453 12.8251L21.3201 16.5L21.857 15.6563ZM13.0749 16.0319L16.1038 14.0127L15.5491 13.1807L12.5202 15.1999L13.0749 16.0319ZM8.02394 12.5365L12.4906 16.0106L13.1046 15.2212L8.63788 11.7472L8.02394 12.5365ZM7.98919 10.474L1.67991 15.7318L2.32009 16.5L8.62937 11.2423L7.98919 10.474Z" fill="#898989" mask="url(#path-1-outside-1_2721_16335)"/>
<path d="M34.1249 2.58331C32.7212 2.58331 31.5833 3.72126 31.5833 5.12498V18.875C31.5833 20.2787 32.7212 21.4166 34.1249 21.4166H47.8749C49.2786 21.4166 50.4166 20.2787 50.4166 18.875V5.12498C50.4166 3.72126 49.2786 2.58331 47.8749 2.58331H34.1249ZM32.9999 5.12498C32.9999 4.50366 33.5036 3.99998 34.1249 3.99998H47.8749C48.4962 3.99998 48.9999 4.50366 48.9999 5.12498V18.875C48.9999 19.4963 48.4962 20 47.8749 20H34.1249C33.5036 20 32.9999 19.4963 32.9999 18.875V5.12498ZM45.1249 6.70831H36.8749C36.4837 6.70831 36.1666 7.02544 36.1666 7.41665C36.1666 7.80785 36.4837 8.12498 36.8749 8.12498H45.1249C45.5161 8.12498 45.8333 7.80785 45.8333 7.41665C45.8333 7.02544 45.5161 6.70831 45.1249 6.70831ZM45.1249 15.875H36.8749C36.4837 15.875 36.1666 16.1921 36.1666 16.5833C36.1666 16.9745 36.4837 17.2916 36.8749 17.2916H45.1249C45.5161 17.2916 45.8333 16.9745 45.8333 16.5833C45.8333 16.1921 45.5161 15.875 45.1249 15.875ZM45.1249 11.2916H36.8749C36.4837 11.2916 36.1666 11.6088 36.1666 12C36.1666 12.3912 36.4837 12.7083 36.8749 12.7083H45.1249C45.5161 12.7083 45.8333 12.3912 45.8333 12C45.8333 11.6088 45.5161 11.2916 45.1249 11.2916Z" fill="#898989" stroke="#898989" stroke-width="0.5"/>
<g clip-path="url(#clip0_2721_16335)">
<path d="M62.4472 3.10557C62.0959 2.92992 61.6743 2.97619 61.3695 3.22384C61.0646 3.47149 60.933 3.87466 61.0329 4.25449L63.0712 12L61.0329 19.7455C60.933 20.1253 61.0646 20.5285 61.3695 20.7762C61.6743 21.0238 62.0959 21.0701 62.4472 20.8944L78.4472 12.8944C78.786 12.725 79 12.3788 79 12C79 11.6212 78.786 11.275 78.4472 11.1056L62.4472 3.10557Z" stroke="#898989" stroke-width="2" stroke-miterlimit="10" stroke-linecap="round" stroke-linejoin="round"/>
<path d="M64 12H68H72" stroke="#898989" stroke-width="2" stroke-miterlimit="10" stroke-linecap="round" stroke-linejoin="round"/>
</g>
<defs>
<clipPath id="clip0_2721_16335">
<rect width="20" height="20" fill="white" transform="translate(60 2)"/>
</clipPath>
</defs>
</svg>
