<svg width="196" height="40" viewBox="0 0 196 40" fill="none" xmlns="http://www.w3.org/2000/svg">
<g clip-path="url(#clip0_679_2190)">
<path d="M13.1457 11.4567C16.3093 11.4567 18.874 8.89205 18.874 5.72836C18.874 2.56467 16.3093 0 13.1457 0C9.98197 0 7.4173 2.56467 7.4173 5.72836C7.4173 8.89205 9.98197 11.4567 13.1457 11.4567Z" fill="#F08327"/>
<path d="M47.9311 11.4567C51.0947 11.4567 53.6594 8.89205 53.6594 5.72836C53.6594 2.56467 51.0947 0 47.9311 0C44.7674 0 42.2027 2.56467 42.2027 5.72836C42.2027 8.89205 44.7674 11.4567 47.9311 11.4567Z" fill="#F08327"/>
<path d="M59.9437 18.9866C59.5016 17.7603 58.6535 16.722 57.5401 16.0439C56.4267 15.3659 55.115 15.089 53.8225 15.2591C52.53 15.4291 51.3346 16.036 50.4345 16.979C49.5344 17.922 48.9838 19.1444 48.8741 20.4434C48.7116 22.2635 47.9416 23.9761 46.6879 25.3056C45.4342 26.6351 43.7697 27.5043 41.9622 27.7732C40.1547 28.042 38.3093 27.6951 36.7229 26.7881C35.1365 25.8811 33.9013 24.4668 33.2161 22.7727C33.0551 22.342 32.7925 21.9566 32.4507 21.6491C32.1089 21.3416 31.6979 21.1211 31.2526 21.0064H31.1682H31.0345H30.9008H30.7882H30.563H30.5137H30.2815H30.1689H30.0352H29.9015H29.817C29.3718 21.1211 28.9608 21.3416 28.619 21.6491C28.2772 21.9566 28.0146 22.342 27.8536 22.7727C27.1684 24.4668 25.9332 25.8811 24.3468 26.7881C22.7604 27.6951 20.915 28.042 19.1075 27.7732C17.3 27.5043 15.6355 26.6351 14.3818 25.3056C13.1281 23.9761 12.3581 22.2635 12.1956 20.4434C12.0859 19.1444 11.5353 17.922 10.6352 16.979C9.7351 16.036 8.53966 15.4291 7.2472 15.2591C5.95474 15.089 4.64296 15.3659 3.52955 16.0439C2.41615 16.722 1.56805 17.7603 1.12597 18.9866C-0.283321 22.6308 -0.241535 26.6766 1.24271 30.2908C2.72696 33.905 5.54066 36.8125 9.10431 38.4143C12.668 40.0162 16.7102 40.1906 20.3985 38.9014C24.0868 37.6123 27.1404 34.9579 28.9303 31.4849L29.0148 31.3301L29.064 31.2527L29.1555 31.133L29.2118 31.0627L29.3174 30.9571L29.3878 30.8938L29.5004 30.8023L29.5778 30.746L29.7115 30.6756L29.7889 30.6334L29.9367 30.5771L30.0211 30.5419L30.19 30.5067H30.2674H30.5208H30.7741H30.8515L31.0204 30.5419L31.1049 30.5771L31.2526 30.6334L31.3371 30.6756L31.4637 30.746L31.5412 30.8023L31.6608 30.8938L31.7241 30.9571L31.8297 31.0627L31.886 31.133L31.9775 31.2527L32.0268 31.3301C32.059 31.3793 32.0873 31.4311 32.1112 31.4849C33.867 35.0207 36.9245 37.7387 40.6416 39.0683C44.3588 40.3978 48.4465 40.2355 52.0465 38.6154C55.6465 36.9952 58.4788 34.0433 59.9487 30.3794C61.4186 26.7155 61.4117 22.6245 59.9296 18.9655L59.9437 18.9866Z" fill="#F08327"/>
<path d="M106.559 8.11403C107.847 8.57146 108.487 9.19073 108.487 9.95076C108.432 10.4326 108.316 10.9055 108.142 11.3582L102.625 27.3118C102.571 27.4792 102.503 27.6417 102.421 27.7974C102.222 28.0999 101.963 28.3585 101.661 28.5574C101.241 28.8772 100.725 29.0458 100.197 29.0359C99.6688 29.0481 99.1523 28.8792 98.7333 28.5574C98.3866 28.3201 98.1038 28.0011 97.9099 27.6284L94.5461 17.7129C92.4208 23.9995 91.3394 27.1992 91.3019 27.3118C91.2308 27.4816 91.1436 27.6442 91.0415 27.7974C90.9088 28.0046 90.7555 28.1979 90.5841 28.3744C90.3783 28.5856 90.132 28.7531 89.86 28.8668C89.5879 28.9805 89.2956 29.038 89.0007 29.0359C88.4647 29.0574 87.9362 28.9043 87.4947 28.5996C87.1631 28.3853 86.8917 28.0898 86.7065 27.741L86.5025 27.3118L80.9571 11.3582C80.783 10.9071 80.6763 10.4329 80.6404 9.95076C80.6404 9.19073 81.2808 8.58552 82.5686 8.14217C83.0514 7.96434 83.5602 7.86689 84.0746 7.85366C84.2716 7.84253 84.4684 7.8789 84.6485 7.95973C84.8285 8.04056 84.9865 8.16346 85.1091 8.3181C85.4078 8.74449 85.6271 9.22128 85.7565 9.72556L88.9162 19.3174L92.0479 9.86631C92.1557 9.4985 92.3425 9.15868 92.5954 8.87059C92.8482 8.58251 93.1609 8.35312 93.5116 8.19848C93.8931 8.05295 94.3 7.98593 94.7079 8.00143C95.2027 8.00285 95.683 8.1687 96.0732 8.47292C96.424 8.70249 96.7022 9.02712 96.8754 9.40889L100.183 19.3807L103.343 9.72556C103.498 9.28221 103.617 8.9585 103.716 8.74738C103.84 8.50211 104.021 8.28986 104.244 8.1281C104.521 7.92024 104.861 7.81347 105.208 7.8255C105.671 7.84238 106.129 7.94002 106.559 8.11403Z" fill="#F08327"/>
<path d="M119.317 15.5314C119.43 14.4547 120.19 13.9198 121.59 13.9198C122.152 13.899 122.713 13.9559 123.258 14.0887C123.419 14.1332 123.57 14.2097 123.7 14.3137C123.831 14.4177 123.939 14.547 124.018 14.6939C124.143 14.9321 124.228 15.1887 124.272 15.454C124.311 15.7831 124.328 16.1147 124.321 16.4462V26.5025C124.328 26.834 124.312 27.1656 124.272 27.4948C124.233 27.7592 124.152 28.0157 124.032 28.2548C123.765 28.7545 123.103 29.0078 122.062 29.0078C121.335 29.0798 120.603 28.9431 119.951 28.6137C119.772 28.4809 119.624 28.3108 119.517 28.1152C119.41 27.9196 119.347 27.7031 119.331 27.4807C118.628 28.4941 117.438 29.0078 115.813 29.0078C114.927 28.9769 114.059 28.7583 113.264 28.3665C112.469 27.9746 111.767 27.4184 111.203 26.7347C109.833 25.3243 109.074 23.4303 109.092 21.4638C109.081 20.4917 109.261 19.5269 109.623 18.6248C109.986 17.7227 110.523 16.901 111.203 16.207C111.783 15.5212 112.5 14.9655 113.309 14.5762C114.118 14.1869 115 13.9728 115.897 13.948C116.508 13.9384 117.115 14.0558 117.678 14.2928C118.086 14.4444 118.467 14.6632 118.804 14.9402C118.996 15.1175 119.169 15.3158 119.317 15.5314ZM114.082 21.506C114.084 21.8267 114.151 22.1436 114.279 22.4375C114.408 22.7314 114.594 22.9963 114.828 23.2161C115.06 23.4606 115.341 23.6543 115.652 23.7851C115.964 23.9159 116.299 23.9809 116.636 23.9761C116.969 23.9835 117.3 23.9181 117.605 23.7844C117.91 23.6506 118.182 23.4519 118.403 23.202C118.847 22.743 119.099 22.131 119.106 21.492C119.092 20.8459 118.842 20.2274 118.403 19.7537C118.182 19.4893 117.903 19.2789 117.589 19.1387C117.274 18.9984 116.931 18.932 116.587 18.9445C116.24 18.9344 115.895 19.0018 115.577 19.1418C115.26 19.2818 114.977 19.4908 114.75 19.7537C114.316 20.2338 114.078 20.8589 114.082 21.506Z" fill="#F08327"/>
<path d="M141.217 23.5467L141.731 23.1738C142.151 22.8776 142.632 22.6803 143.139 22.5967C143.73 22.5967 144.377 23.1315 145.067 24.2083C145.416 24.678 145.634 25.2315 145.7 25.8128C145.704 25.9982 145.671 26.1826 145.604 26.3553C145.536 26.528 145.435 26.6856 145.306 26.8191C145.038 27.0919 144.735 27.3285 144.405 27.5228L143.413 28.128C142.792 28.4414 142.142 28.6913 141.471 28.874C140.562 29.1717 139.612 29.3284 138.656 29.3384C137.725 29.3356 136.798 29.215 135.897 28.9795C133.797 28.3915 131.889 27.2604 130.366 25.7002C129.522 24.7914 128.863 23.728 128.424 22.5686C127.908 21.2456 127.65 19.8363 127.664 18.4165C127.647 17.0252 127.9 15.6439 128.41 14.349C128.848 13.2292 129.498 12.2042 130.324 11.33C131.102 10.5327 132 9.86083 132.984 9.33844C134.697 8.3491 136.635 7.81377 138.614 7.7832C140.309 7.82051 141.972 8.25432 143.469 9.04991L144.173 9.45104C144.518 9.66216 144.785 9.83106 144.975 9.96477C145.198 10.1188 145.381 10.3222 145.512 10.559C145.643 10.7959 145.717 11.0597 145.728 11.33C145.701 11.9132 145.489 12.4727 145.123 12.9275C144.377 13.9619 143.716 14.4827 143.11 14.4827C142.575 14.4059 142.069 14.1873 141.647 13.8493C140.719 13.1574 139.579 12.8114 138.424 12.8712C137.092 12.8994 135.805 13.3532 134.75 14.166C134.143 14.6361 133.66 15.2472 133.343 15.9465C132.963 16.7607 132.766 17.6483 132.766 18.5467C132.766 19.4452 132.963 20.3328 133.343 21.147C133.676 21.8599 134.179 22.4807 134.806 22.9556C135.854 23.7584 137.132 24.2026 138.452 24.2223C139.021 24.226 139.587 24.1478 140.134 23.9901C140.513 23.8906 140.877 23.7415 141.217 23.5467Z" fill="#F08327"/>
<path d="M158.255 15.5313C158.367 14.4546 159.12 13.8916 160.528 13.8916C161.087 13.8702 161.646 13.9271 162.189 14.0605C162.351 14.1041 162.502 14.1802 162.634 14.2842C162.766 14.3883 162.876 14.5181 162.956 14.6657C163.08 14.9039 163.166 15.1605 163.209 15.4257C163.242 15.7554 163.256 16.0867 163.251 16.418V26.4743C163.257 26.8056 163.242 27.1369 163.209 27.4665C163.17 27.7309 163.089 27.9875 162.97 28.2265C162.695 28.7262 162.041 28.9795 160.999 28.9795C160.272 29.0515 159.54 28.9148 158.888 28.5855C158.708 28.4536 158.559 28.2838 158.452 28.088C158.345 27.8922 158.283 27.6752 158.269 27.4524C157.565 28.4658 156.376 28.9795 154.75 28.9795C153.864 28.9479 152.994 28.729 152.199 28.3372C151.403 27.9454 150.699 27.3897 150.134 26.7065C148.765 25.2948 148.007 23.4016 148.023 21.4356C148.001 19.4727 148.761 17.5818 150.134 16.1787C150.715 15.4931 151.434 14.9376 152.244 14.5484C153.053 14.1591 153.936 13.945 154.835 13.9197C155.446 13.9102 156.052 14.0276 156.615 14.2646C157.021 14.4175 157.399 14.6363 157.734 14.912C157.931 15.098 158.105 15.3057 158.255 15.5313ZM153.026 21.5059C153.028 21.8266 153.096 22.1435 153.224 22.4374C153.352 22.7313 153.539 22.9962 153.772 23.216C154.005 23.4608 154.285 23.6548 154.597 23.7856C154.908 23.9164 155.243 23.9813 155.581 23.976C155.914 23.9834 156.244 23.918 156.549 23.7843C156.854 23.6505 157.127 23.4518 157.347 23.2019C157.792 22.7433 158.044 22.131 158.051 21.4918C158.037 20.8458 157.786 20.2273 157.347 19.7536C157.127 19.4894 156.85 19.279 156.537 19.1387C156.223 18.9984 155.882 18.9319 155.538 18.9444C155.191 18.9343 154.846 19.0017 154.529 19.1417C154.211 19.2817 153.928 19.4907 153.702 19.7536C153.265 20.2326 153.024 20.8579 153.026 21.5059Z" fill="#F08327"/>
<path d="M177.277 14.0886C177.628 14.1987 177.942 14.4032 178.184 14.6798C178.456 15.07 178.583 15.5429 178.543 16.0168C178.519 16.7212 178.331 17.4102 177.994 18.0295C177.871 18.348 177.654 18.6221 177.373 18.8165C177.092 19.011 176.76 19.1168 176.418 19.1203C176.074 19.1205 175.734 19.041 175.426 18.8881C175.03 18.7202 174.602 18.6433 174.173 18.6629C173.642 18.6701 173.129 18.8616 172.723 19.2047C172.51 19.3543 172.335 19.5521 172.213 19.782C172.091 20.0119 172.025 20.2674 172.02 20.5277V26.5587C172.025 26.89 172.011 27.2213 171.977 27.551C171.933 27.8212 171.84 28.0811 171.703 28.318C171.414 28.8106 170.669 29.064 169.458 29.064C168.762 29.1254 168.066 28.952 167.481 28.5714C167.316 28.4114 167.185 28.2199 167.095 28.0084C167.006 27.7969 166.96 27.5695 166.96 27.3398V16.418C166.955 16.0867 166.969 15.7554 167.002 15.4257C167.046 15.1795 167.129 14.942 167.248 14.722C167.516 14.2083 168.262 13.9479 169.493 13.9479C170.725 13.9479 171.358 14.166 171.647 14.6094C171.849 14.8851 171.96 15.2174 171.963 15.5594C172.087 15.3831 172.226 15.2182 172.379 15.0668C172.73 14.7595 173.121 14.4993 173.54 14.2927C174.015 14.0033 174.554 13.8342 175.109 13.8001C175.488 13.796 175.867 13.8219 176.242 13.8775C176.592 13.9194 176.938 13.99 177.277 14.0886Z" fill="#F08327"/>
<path d="M195.292 19.6833C195.33 20.1548 195.272 20.629 195.122 21.0776C194.972 21.5262 194.733 21.94 194.419 22.2942C194.169 22.5588 193.868 22.7705 193.535 22.9167C193.201 23.063 192.841 23.1408 192.477 23.1457H185.665C185.684 23.4365 185.782 23.7166 185.95 23.955C186.118 24.1934 186.348 24.3809 186.615 24.4968C187.19 24.8406 187.845 25.0274 188.515 25.0387C189.399 25.0721 190.281 24.9555 191.126 24.6939L191.443 24.5813C191.799 24.3981 192.19 24.2903 192.59 24.2646C193.209 24.2646 193.73 24.6939 194.173 25.5595C194.391 25.966 194.518 26.415 194.546 26.8754C194.546 28.5879 192.505 29.4417 188.424 29.437C187.129 29.4681 185.842 29.2284 184.645 28.7333C183.639 28.312 182.755 27.644 182.076 26.791C180.894 25.3164 180.256 23.4801 180.267 21.5904C180.22 20.5135 180.405 19.439 180.809 18.4398C181.214 17.4405 181.828 16.5399 182.611 15.7987C184.203 14.3406 186.301 13.5627 188.459 13.6312C191.119 13.6312 193.073 14.5696 194.321 16.4462C194.955 17.4068 195.292 18.5325 195.292 19.6833ZM189.233 20.5278C189.937 20.5278 190.324 20.2252 190.324 19.6059C190.329 19.4013 190.286 19.1984 190.198 19.0137C190.11 18.829 189.979 18.6678 189.817 18.5433C189.406 18.2556 188.91 18.1143 188.41 18.1422C187.722 18.1685 187.066 18.4378 186.559 18.9022C186.291 19.0842 186.068 19.3255 185.908 19.6074C185.748 19.8893 185.655 20.2042 185.637 20.5278H189.233Z" fill="#F08327"/>
</g>
<defs>
<clipPath id="clip0_679_2190">
<rect width="195.299" height="40" fill="white"/>
</clipPath>
</defs>
</svg>
