<svg width="21" height="12" viewBox="0 0 21 12" fill="none" xmlns="http://www.w3.org/2000/svg">
<path d="M18.7423 6.04545L17.449 7.17714L17.449 7.17718C15.547 8.84343 13.0653 9.77004 10.487 9.77004C7.9087 9.77004 5.42666 8.84318 3.52473 7.17693L3.52468 7.17689L2.23163 6.04545L3.51802 4.94736L3.51803 4.94736L3.51899 4.94652L3.52501 4.94124C3.52501 4.94124 3.52501 4.94124 3.52501 4.94124C5.42694 3.27499 7.9087 2.34838 10.487 2.34838C13.0653 2.34838 15.547 3.27503 17.4489 4.94129L17.4499 4.94212L18.7423 6.04545ZM10.487 0.9C7.56537 0.9 4.74434 1.94897 2.57414 3.8487L0.653969 5.4879C0.49397 5.62448 0.401272 5.82389 0.399987 6.03426C0.398702 6.24463 0.488957 6.44516 0.647276 6.58369L2.57058 8.26661C4.74126 10.1683 7.56377 11.2184 10.487 11.2184C13.4102 11.2184 16.2327 10.1683 18.4034 8.26661L20.3267 6.58369C20.485 6.44516 20.5753 6.24463 20.574 6.03426C20.5727 5.82389 20.48 5.62448 20.32 5.4879L18.4003 3.84914C18.4002 3.849 18.4 3.84887 18.3999 3.84874C16.2297 1.94898 13.4086 0.9 10.487 0.9Z" fill="#898989" stroke="#898989" stroke-width="0.2" stroke-linecap="round" stroke-linejoin="round"/>
<path d="M8.74727 6.05904C8.74727 5.09822 9.52617 4.31932 10.487 4.31932C11.4478 4.31932 12.2267 5.09822 12.2267 6.05904C12.2267 7.01985 11.4478 7.79875 10.487 7.79875C9.52617 7.79875 8.74727 7.01985 8.74727 6.05904ZM10.487 2.87095C8.72625 2.87095 7.29889 4.2983 7.29889 6.05904C7.29889 7.81977 8.72625 9.24713 10.487 9.24713C12.2477 9.24713 13.6751 7.81977 13.6751 6.05904C13.6751 4.2983 12.2477 2.87095 10.487 2.87095Z" fill="#898989" stroke="#898989" stroke-width="0.2" stroke-linecap="round" stroke-linejoin="round"/>
</svg>
