<svg width="48" height="32" viewBox="0 0 48 32" fill="none" xmlns="http://www.w3.org/2000/svg">
<g clip-path="url(#clip0_4312_11633)">
<path d="M10.1773 9.38583C12.6266 9.38583 14.6122 7.40028 14.6122 4.95097C14.6122 2.50167 12.6266 0.516113 10.1773 0.516113C7.72799 0.516113 5.74243 2.50167 5.74243 4.95097C5.74243 7.40028 7.72799 9.38583 10.1773 9.38583Z" fill="#F08327"/>
<path d="M37.1079 9.38583C39.5572 9.38583 41.5428 7.40028 41.5428 4.95097C41.5428 2.50167 39.5572 0.516113 37.1079 0.516113C34.6586 0.516113 32.6731 2.50167 32.6731 4.95097C32.6731 7.40028 34.6586 9.38583 37.1079 9.38583Z" fill="#F08327"/>
<path d="M46.408 15.2154C46.0658 14.266 45.4091 13.4621 44.5472 12.9372C43.6852 12.4123 42.6696 12.1979 41.669 12.3296C40.6684 12.4612 39.7429 12.9311 39.046 13.6612C38.3492 14.3912 37.9229 15.3376 37.838 16.3432C37.7122 17.7524 37.116 19.0783 36.1454 20.1076C35.1748 21.1369 33.8862 21.8097 32.4868 22.0179C31.0875 22.2261 29.6588 21.9575 28.4306 21.2553C27.2024 20.5531 26.2461 19.4581 25.7156 18.1466C25.591 17.8132 25.3877 17.5148 25.1231 17.2767C24.8585 17.0386 24.5403 16.8679 24.1956 16.7791H24.1302H24.0267H23.9232H23.836H23.6617H23.6235H23.4437H23.3566H23.253H23.1495H23.0841C22.7394 16.8679 22.4212 17.0386 22.1566 17.2767C21.892 17.5148 21.6887 17.8132 21.5641 18.1466C21.0336 19.4581 20.0773 20.5531 18.8491 21.2553C17.6209 21.9575 16.1922 22.2261 14.7929 22.0179C13.3935 21.8097 12.1049 21.1369 11.1343 20.1076C10.1637 19.0783 9.56753 17.7524 9.44177 16.3432C9.3568 15.3376 8.93052 14.3912 8.23368 13.6612C7.53684 12.9311 6.61133 12.4612 5.61072 12.3296C4.6101 12.1979 3.59453 12.4123 2.73254 12.9372C1.87055 13.4621 1.21396 14.266 0.8717 15.2154C-0.219362 18.0367 -0.187012 21.1689 0.962083 23.967C2.11118 26.7652 4.28952 29.0161 7.04848 30.2563C9.80743 31.4964 12.9369 31.6314 15.7924 30.6334C18.6479 29.6353 21.0119 27.5803 22.3977 24.8915L22.463 24.7717L22.5012 24.7117L22.572 24.6191L22.6156 24.5646L22.6973 24.4829L22.7518 24.4339L22.839 24.363L22.8989 24.3195L23.0024 24.265L23.0623 24.2323L23.1768 24.1887L23.2421 24.1615L23.3729 24.1342H23.4328H23.629H23.8251H23.885L24.0158 24.1615L24.0812 24.1887L24.1956 24.2323L24.2609 24.265L24.359 24.3195L24.419 24.363L24.5116 24.4339L24.5606 24.4829L24.6423 24.5646L24.6859 24.6191L24.7568 24.7117L24.7949 24.7717C24.8199 24.8098 24.8417 24.8499 24.8603 24.8915C26.2196 27.6289 28.5867 29.7332 31.4645 30.7625C34.3422 31.7919 37.5069 31.6662 40.294 30.4119C43.0811 29.1576 45.2739 26.8722 46.4119 24.0356C47.5499 21.1991 47.5446 18.0319 46.3971 15.1991L46.408 15.2154Z" fill="#F08327"/>
</g>
<defs>
<clipPath id="clip0_4312_11633">
<rect width="48" height="30.9678" fill="white" transform="translate(0 0.516113)"/>
</clipPath>
</defs>
</svg>
