<svg width="17" height="16" viewBox="0 0 17 16" fill="none" xmlns="http://www.w3.org/2000/svg">
<path fill-rule="evenodd" clip-rule="evenodd" d="M12.2501 0.350006C12.3827 0.350006 12.5099 0.402685 12.6037 0.496453L16.0037 3.89645C16.1976 4.09044 16.1991 4.4045 16.0069 4.60027L5.30691 15.5003C5.21289 15.596 5.08431 15.65 4.9501 15.65H1.3501C1.07396 15.65 0.850098 15.4261 0.850098 15.15V11.75C0.850098 11.6174 0.902776 11.4902 0.996544 11.3965L11.8965 0.496453C11.9903 0.402685 12.1175 0.350006 12.2501 0.350006ZM1.8501 11.9571V14.65H4.74027L14.9462 4.25326L12.2501 1.55711L1.8501 11.9571Z" fill="#F08327"/>
<path fill-rule="evenodd" clip-rule="evenodd" d="M10.4965 1.89645C10.6918 1.70118 11.0084 1.70118 11.2037 1.89645L14.6037 5.29645C14.7989 5.49171 14.7989 5.80829 14.6037 6.00355C14.4084 6.19882 14.0918 6.19882 13.8965 6.00355L10.4965 2.60355C10.3013 2.40829 10.3013 2.09171 10.4965 1.89645Z" fill="#F08327"/>
</svg>
