<svg width="18" height="18" viewBox="0 0 18 18" fill="none" xmlns="http://www.w3.org/2000/svg">
<path d="M7 13.1C8.45988 13.1 9.79998 12.5872 10.85 11.7318L16.0355 16.9174C16.279 17.1609 16.6739 17.1609 16.9174 16.9174C17.1609 16.6739 17.1609 16.279 16.9174 16.0355L11.7318 10.85C12.5872 9.79998 13.1 8.45988 13.1 7C13.1 3.63106 10.3689 0.9 7 0.9C3.63106 0.9 0.9 3.63106 0.9 7C0.9 10.3689 3.63106 13.1 7 13.1ZM2.1 7C2.1 4.2938 4.2938 2.1 7 2.1C9.7062 2.1 11.9 4.2938 11.9 7C11.9 9.7062 9.7062 11.9 7 11.9C4.2938 11.9 2.1 9.7062 2.1 7Z" fill="#898989" stroke="#898989" stroke-width="0.2" stroke-linecap="round"/>
</svg>
