<svg width="23" height="24" viewBox="0 0 23 24" fill="none" xmlns="http://www.w3.org/2000/svg">
<path d="M22.5221 1.17899C22.3155 0.972534 22.0576 0.824886 21.775 0.751252C21.4923 0.677617 21.1952 0.680658 20.9141 0.760061H20.8987L1.19075 6.74002C0.869934 6.83228 0.584841 7.02008 0.373428 7.27841C0.162014 7.53675 0.0343137 7.85335 0.00733031 8.18608C-0.0196531 8.5188 0.0553611 8.85184 0.222384 9.14087C0.389407 9.42989 0.640513 9.66118 0.942265 9.80393L9.73354 13.9675L13.8971 22.7588C14.0286 23.0403 14.2378 23.2784 14.5002 23.4448C14.7625 23.6113 15.067 23.6993 15.3777 23.6983C15.425 23.6983 15.4722 23.6962 15.5194 23.6921C15.851 23.6653 16.1664 23.5377 16.4233 23.3264C16.6803 23.1152 16.8665 22.8304 16.9569 22.5103L22.9328 2.80232C22.9328 2.79719 22.9328 2.79206 22.9328 2.78692C23.0132 2.50657 23.0176 2.20987 22.9454 1.92728C22.8732 1.6447 22.7271 1.38642 22.5221 1.17899ZM15.387 22.04L15.3819 22.0544L11.3405 13.5229L16.191 8.67139C16.3385 8.51609 16.4195 8.3093 16.4168 8.0951C16.4141 7.88091 16.3277 7.67625 16.1763 7.52478C16.0248 7.37331 15.8202 7.287 15.606 7.28426C15.3918 7.28152 15.185 7.36256 15.0297 7.5101L10.1781 12.3606L1.64561 8.31921H1.65998L21.3598 2.3413L15.387 22.04Z" fill="white"/>
</svg>
