<svg width="26" height="25" viewBox="0 0 26 25" fill="none" xmlns="http://www.w3.org/2000/svg">
<path fill-rule="evenodd" clip-rule="evenodd" d="M8.14088 10.3579C8.47544 10.0619 9.0293 10.0483 9.37795 10.3276C9.50814 10.4319 9.63562 10.5339 9.76044 10.6337C12.1462 12.5421 13.5589 13.6723 14.3005 15.3081C14.6906 16.1687 14.8852 17.1381 14.9997 18.3808C15.1134 19.6151 15.1515 21.1699 15.2015 23.2119L15.2021 23.2362C15.2121 23.643 14.8285 23.9824 14.3454 23.9942C13.8623 24.0061 13.4626 23.6859 13.4526 23.279C13.4019 21.2079 13.3645 19.6948 13.2551 18.5071C13.146 17.323 12.9688 16.5141 12.665 15.8439C12.0666 14.5237 10.939 13.6205 8.2884 11.4974C8.24809 11.4651 8.20743 11.4325 8.16641 11.3997C7.81775 11.1204 7.80633 10.6539 8.14088 10.3579Z" fill="#22AC38"/>
<path fill-rule="evenodd" clip-rule="evenodd" d="M19.6683 6.2538C19.9385 6.61218 19.7671 7.07122 19.2856 7.2791C18.4536 7.63824 17.3682 8.3135 16.5138 10.5441C15.6416 12.821 15.0407 16.6485 15.2017 23.2231C15.2119 23.6372 14.7725 23.9838 14.2204 23.9973C13.6683 24.0109 13.2125 23.6861 13.2024 23.2721C13.0402 16.6506 13.6366 12.6442 14.5925 10.1488C15.5661 7.6071 16.9394 6.57165 18.307 5.98129C18.7886 5.77341 19.398 5.89542 19.6683 6.2538Z" fill="#22AC38"/>
<path fill-rule="evenodd" clip-rule="evenodd" d="M16.6379 3.87838C14.6496 5.41416 13.5098 7.39667 13.197 8.65768C13.0854 9.10719 12.597 9.38881 12.106 9.28672C11.615 9.18462 11.3073 8.73746 11.4188 8.28796C11.8243 6.65381 13.1876 4.35937 15.4621 2.60256C17.7675 0.821948 21.0353 -0.424687 25.2041 0.135396C25.7023 0.202327 26.0469 0.6263 25.9738 1.08237C25.9007 1.53843 25.4376 1.85389 24.9394 1.78696C21.3504 1.30479 18.5955 2.36639 16.6379 3.87838Z" fill="#22AC38"/>
<path fill-rule="evenodd" clip-rule="evenodd" d="M24.8499 0.135689C25.348 0.0677637 25.8118 0.382296 25.886 0.838216C26.1828 2.66164 25.9061 5.08322 24.9848 7.23354C24.0661 9.37777 22.4337 11.4088 19.8901 12.1858C19.4125 12.3317 18.8961 12.0955 18.7367 11.6582C18.5773 11.221 18.8353 10.7482 19.313 10.6023C21.1411 10.0439 22.4717 8.52775 23.2873 6.62404C24.1003 4.72642 24.3291 2.59928 24.0825 1.08419C24.0083 0.628274 24.3519 0.203614 24.8499 0.135689Z" fill="#22AC38"/>
<path fill-rule="evenodd" clip-rule="evenodd" d="M8.64497 5.80864C9.90533 6.38181 10.6603 7.47933 11.4957 8.78537C11.7546 9.19018 12.3243 9.35672 12.7682 9.15735C13.2122 8.95798 13.3621 8.46819 13.1032 8.06338L13.0947 8.05012C12.307 6.81845 11.2868 5.22344 9.40683 4.36848C7.46853 3.487 4.89551 3.49505 1.23671 4.80183C0.773099 4.96741 0.577019 5.44193 0.79875 5.8617C1.02048 6.28147 1.57606 6.48752 2.03967 6.32194C5.49071 5.08937 7.43618 5.25891 8.64497 5.80864Z" fill="#22AC38"/>
<path fill-rule="evenodd" clip-rule="evenodd" d="M1.43137 4.67928C0.926485 4.73209 0.594924 5.13818 0.690806 5.58633C0.727852 5.75948 0.767796 5.95461 0.811516 6.16819C1.10504 7.60207 1.56878 9.86751 2.46892 11.8978C3.4775 14.1726 5.23578 16.5942 8.36407 16.7993C8.87797 16.833 9.29638 16.4955 9.29861 16.0455C9.30084 15.5955 8.88605 15.2034 8.37215 15.1697C6.50118 15.0471 5.17292 13.6007 4.19726 11.4001C3.37313 9.54124 2.945 7.45881 2.64735 6.01107C2.60189 5.78993 2.55947 5.58359 2.51914 5.39512C2.42326 4.94697 1.93625 4.62648 1.43137 4.67928Z" fill="#22AC38"/>
</svg>
