<svg width="21" height="21" viewBox="0 0 21 21" fill="none" xmlns="http://www.w3.org/2000/svg">
<g clip-path="url(#clip0_4950_4421)">
<path d="M20.5 10.5728C20.5 13.2249 19.4464 15.7685 17.5711 17.6438C15.6957 19.5192 13.1522 20.5728 10.5 20.5728C7.84784 20.5728 5.3043 19.5192 3.42893 17.6438C1.55357 15.7685 0.5 13.2249 0.5 10.5728C0.5 7.92059 1.55357 5.37705 3.42893 3.50169C5.3043 1.62632 7.84784 0.572754 10.5 0.572754C13.1522 0.572754 15.6957 1.62632 17.5711 3.50169C19.4464 5.37705 20.5 7.92059 20.5 10.5728ZM8.9875 6.939C8.89404 6.87246 8.78408 6.83293 8.66965 6.82474C8.55522 6.81654 8.44074 6.84 8.33876 6.89254C8.23678 6.94508 8.15122 7.02468 8.09147 7.12261C8.03172 7.22054 8.00007 7.33303 8 7.44775V13.6978C8.00007 13.8125 8.03172 13.925 8.09147 14.0229C8.15122 14.1208 8.23678 14.2004 8.33876 14.253C8.44074 14.3055 8.55522 14.329 8.66965 14.3208C8.78408 14.3126 8.89404 14.273 8.9875 14.2065L13.3625 11.0815C13.4435 11.0237 13.5096 10.9474 13.5551 10.8589C13.6007 10.7704 13.6245 10.6723 13.6245 10.5728C13.6245 10.4732 13.6007 10.3751 13.5551 10.2866C13.5096 10.1981 13.4435 10.1218 13.3625 10.064L8.9875 6.939Z" fill="white"/>
</g>
<defs>
<clipPath id="clip0_4950_4421">
<rect width="20" height="20" fill="white" transform="translate(0.5 0.572754)"/>
</clipPath>
</defs>
</svg>
