<svg width="64" height="16" viewBox="0 0 64 16" fill="none" xmlns="http://www.w3.org/2000/svg">
<path d="M18.34 0.419971C19.2333 0.73997 19.68 1.16664 19.68 1.69997C19.68 1.8733 19.6 2.19997 19.44 2.67997L15.6 13.78C15.5733 13.8733 15.5267 13.9866 15.46 14.12C15.3933 14.2533 15.2133 14.4333 14.92 14.66C14.64 14.8733 14.3 14.98 13.9 14.98C13.5133 14.98 13.1733 14.8733 12.88 14.66C12.6 14.4333 12.4133 14.2133 12.32 14L9.97999 7.09997C8.49999 11.4733 7.74665 13.7 7.71999 13.78C7.69332 13.86 7.63332 13.9733 7.53999 14.12C7.44665 14.2666 7.33999 14.4 7.21999 14.52C6.91332 14.8266 6.54665 14.98 6.11999 14.98C5.69332 14.98 5.33999 14.88 5.05999 14.68C4.79332 14.48 4.61332 14.28 4.51999 14.08L4.37999 13.78L0.519988 2.67997C0.373321 2.23997 0.299988 1.9133 0.299988 1.69997C0.299988 1.16664 0.746655 0.746637 1.63999 0.43997C2.02665 0.306637 2.37332 0.239971 2.67999 0.239971C2.99999 0.239971 3.23999 0.346637 3.39999 0.55997C3.57332 0.773304 3.72665 1.09997 3.85999 1.53997L6.05999 8.21997L8.23999 1.63997C8.42665 1.07997 8.76665 0.693304 9.25999 0.479971C9.47332 0.386637 9.74665 0.339971 10.08 0.339971C10.4267 0.339971 10.7467 0.453304 11.04 0.679971C11.3333 0.893304 11.52 1.10664 11.6 1.31997L13.9 8.25997L16.1 1.53997C16.2067 1.2333 16.2933 1.00664 16.36 0.859971C16.4267 0.713304 16.5467 0.573304 16.72 0.43997C16.9067 0.293304 17.1333 0.219971 17.4 0.219971C17.6667 0.219971 17.98 0.286637 18.34 0.419971Z" fill="#F08327"/>
<path d="M26.2142 5.57997C26.2942 4.8333 26.8209 4.45997 27.7942 4.45997C28.3142 4.45997 28.7009 4.49997 28.9542 4.57997C29.2075 4.65997 29.3809 4.79997 29.4742 4.99997C29.5809 5.19997 29.6409 5.37997 29.6542 5.53997C29.6809 5.68664 29.6942 5.9133 29.6942 6.21997V13.22C29.6942 13.5266 29.6809 13.76 29.6542 13.92C29.6409 14.0666 29.5875 14.24 29.4942 14.44C29.3075 14.7866 28.8475 14.96 28.1142 14.96C27.3942 14.96 26.9075 14.8733 26.6542 14.7C26.4142 14.5133 26.2742 14.2466 26.2342 13.9C25.7409 14.6066 24.9142 14.96 23.7542 14.96C22.6075 14.96 21.5409 14.4333 20.5542 13.38C19.5675 12.3266 19.0742 11.1066 19.0742 9.71997C19.0742 8.31997 19.5675 7.09997 20.5542 6.05997C21.5542 5.00664 22.6475 4.47997 23.8342 4.47997C24.2875 4.47997 24.7009 4.55997 25.0742 4.71997C25.4475 4.87997 25.7075 5.0333 25.8542 5.17997C26.0009 5.3133 26.1209 5.44664 26.2142 5.57997ZM22.5742 9.73997C22.5742 10.18 22.7475 10.58 23.0942 10.94C23.4409 11.2866 23.8609 11.46 24.3542 11.46C24.8475 11.46 25.2542 11.28 25.5742 10.92C25.9075 10.56 26.0742 10.1666 26.0742 9.73997C26.0742 9.29997 25.9142 8.8933 25.5942 8.51997C25.2875 8.14664 24.8675 7.95997 24.3342 7.95997C23.8142 7.95997 23.3875 8.14664 23.0542 8.51997C22.7342 8.8933 22.5742 9.29997 22.5742 9.73997Z" fill="#F08327"/>
<path d="M42.1083 3.29997C42.4549 4.00664 42.6283 4.7933 42.6283 5.65997C42.6283 6.52664 42.4549 7.3133 42.1083 8.01997C41.7616 8.7133 41.3149 9.26664 40.7683 9.67997C39.6616 10.5333 38.5149 10.96 37.3283 10.96H34.8283V13.22C34.8283 13.5266 34.8149 13.76 34.7883 13.92C34.7749 14.0666 34.7149 14.24 34.6083 14.44C34.4216 14.8 33.9016 14.98 33.0483 14.98C32.1149 14.98 31.5683 14.7333 31.4083 14.24C31.3283 14.0133 31.2883 13.6666 31.2883 13.2V2.09997C31.2883 1.7933 31.2949 1.56664 31.3083 1.41997C31.3349 1.25997 31.4016 1.07997 31.5083 0.879971C31.6949 0.51997 32.2149 0.339971 33.0683 0.339971H37.3483C38.5216 0.339971 39.6616 0.766637 40.7683 1.61997C41.3149 2.0333 41.7616 2.5933 42.1083 3.29997ZM37.3483 7.41997C37.7483 7.41997 38.1416 7.2733 38.5283 6.97997C38.9149 6.68664 39.1083 6.24664 39.1083 5.65997C39.1083 5.0733 38.9149 4.6333 38.5283 4.33997C38.1416 4.0333 37.7416 3.87997 37.3283 3.87997H34.8283V7.41997H37.3483Z" fill="#F08327"/>
<path d="M51.085 4.57997C51.3383 4.65997 51.545 4.79997 51.705 4.99997C51.8783 5.18664 51.965 5.4933 51.965 5.91997C51.965 6.34664 51.8383 6.8133 51.585 7.31997C51.3317 7.82664 50.965 8.07997 50.485 8.07997C50.245 8.07997 50.0117 8.02664 49.785 7.91997C49.5717 7.8133 49.285 7.75997 48.925 7.75997C48.565 7.75997 48.225 7.88664 47.905 8.13997C47.5983 8.3933 47.445 8.69997 47.445 9.05997V13.26C47.445 13.5666 47.4317 13.8 47.405 13.96C47.3917 14.1066 47.3317 14.28 47.225 14.48C47.025 14.8266 46.505 15 45.665 15C45.025 15 44.565 14.8866 44.285 14.66C44.0717 14.4733 43.9517 14.1866 43.925 13.8C43.925 13.6666 43.925 13.4733 43.925 13.22V6.19997C43.925 5.8933 43.9317 5.66664 43.945 5.51997C43.9717 5.35997 44.0317 5.18664 44.125 4.99997C44.3117 4.63997 44.8317 4.45997 45.685 4.45997C46.485 4.45997 46.985 4.6133 47.185 4.91997C47.3317 5.1333 47.405 5.3533 47.405 5.57997C47.4717 5.48664 47.565 5.3733 47.685 5.23997C47.8183 5.10664 48.0917 4.92664 48.505 4.69997C48.9183 4.4733 49.2783 4.35997 49.585 4.35997C49.905 4.35997 50.1717 4.37997 50.385 4.41997C50.5983 4.44664 50.8317 4.49997 51.085 4.57997Z" fill="#F08327"/>
<path d="M52.1601 9.73997C52.1601 8.13997 52.7201 6.81997 53.8401 5.77997C54.9601 4.73997 56.2401 4.21997 57.6801 4.21997C59.1201 4.21997 60.3935 4.73997 61.5001 5.77997C62.6068 6.80664 63.1601 8.11997 63.1601 9.71997C63.1601 10.8266 62.8735 11.8133 62.3001 12.68C61.7268 13.5333 61.0268 14.1666 60.2001 14.58C59.3868 14.98 58.5401 15.18 57.6601 15.18C56.7801 15.18 55.9268 14.9666 55.1001 14.54C54.2735 14.1 53.5735 13.46 53.0001 12.62C52.4401 11.7666 52.1601 10.8066 52.1601 9.73997ZM56.3401 11.18C56.7668 11.5 57.2001 11.66 57.6401 11.66C58.0801 11.66 58.5201 11.4933 58.9601 11.16C59.4001 10.8266 59.6201 10.3333 59.6201 9.67997C59.6201 9.02664 59.4135 8.53997 59.0001 8.21997C58.5868 7.89997 58.1401 7.73997 57.6601 7.73997C57.1801 7.73997 56.7335 7.90664 56.3201 8.23997C55.9068 8.5733 55.7001 9.06664 55.7001 9.71997C55.7001 10.36 55.9135 10.8466 56.3401 11.18Z" fill="#F08327"/>
</svg>
